<?xml version="1.0" encoding="utf-8"?>
<svg version="1.1" xmlns:xlink="http://www.w3.org/1999/xlink" width="41px" height="31px" xmlns="http://www.w3.org/2000/svg">
  <g transform="matrix(1 0 0 1 -67 -152 )">
    <path d="M 40.2593548387097 4.27946127946128  C 40.7531182795699 4.7665544332211  41 5.35802469135802  41 6.05387205387205  C 41 6.74971941638608  40.7531182795699 7.34118967452301  40.2593548387097 7.82828282828283  L 21.1083870967742 26.7205387205387  L 17.5109677419355 30.2693602693603  C 17.0172043010753 30.7564534231201  16.4176344086022 31  15.7122580645161 31  C 15.0068817204301 31  14.407311827957 30.7564534231201  13.9135483870968 30.2693602693603  L 10.3161290322581 26.7205387205387  L 0.740645161290323 17.2744107744108  C 0.246881720430108 16.787317620651  0 16.195847362514  0 15.5  C 0 14.804152637486  0.246881720430108 14.212682379349  0.740645161290323 13.7255892255892  L 4.33806451612903 10.1767676767677  C 4.83182795698925 9.68967452300786  5.43139784946237 9.44612794612794  6.13677419354839 9.44612794612795  C 6.84215053763441 9.44612794612794  7.44172043010753 9.68967452300786  7.93548387096774 10.1767676767677  L 15.7122580645161 17.8745791245791  L 33.0645161290323 0.730639730639731  C 33.5582795698925 0.243546576879909  34.1578494623656 0  34.8632258064516 0  C 35.5686021505376 0  36.1681720430108 0.243546576879909  36.661935483871 0.730639730639731  L 40.2593548387097 4.27946127946128  Z " fill-rule="nonzero" fill="#009900" stroke="none" transform="matrix(1 0 0 1 67 152 )" />
  </g>
</svg>