<?xml version="1.0" encoding="utf-8"?>
<svg version="1.1" xmlns:xlink="http://www.w3.org/1999/xlink" width="20px" height="20px" xmlns="http://www.w3.org/2000/svg">
  <g transform="matrix(1 0 0 1 -118 -206 )">
    <path d="M 16.2357954545454 9.21875  C 16.3210227272727 9.30397727272725  16.3636363636364 9.41287878787881  16.3636363636364 9.54545454545456  L 16.3636363636364 10.4545454545454  C 16.3636363636364 10.5871212121212  16.3210227272727 10.6960227272727  16.2357954545454 10.78125  C 16.1505681818182 10.8664772727273  16.0416666666667 10.9090909090909  15.9090909090909 10.9090909090909  L 10.9090909090909 10.9090909090909  L 10.9090909090909 15.9090909090909  C 10.9090909090909 16.0416666666667  10.8664772727273 16.1505681818182  10.78125 16.2357954545454  C 10.6960227272727 16.3210227272727  10.5871212121212 16.3636363636364  10.4545454545454 16.3636363636364  L 9.54545454545456 16.3636363636364  C 9.41287878787878 16.3636363636364  9.30397727272728 16.3210227272727  9.21875 16.2357954545454  C 9.13352272727272 16.1505681818182  9.09090909090909 16.0416666666667  9.09090909090909 15.9090909090909  L 9.09090909090909 10.9090909090909  L 4.09090909090909 10.9090909090909  C 3.95833333333334 10.9090909090909  3.84943181818181 10.8664772727273  3.76420454545453 10.78125  C 3.67897727272728 10.6960227272727  3.63636363636363 10.5871212121212  3.63636363636363 10.4545454545454  L 3.63636363636363 9.54545454545456  C 3.63636363636363 9.41287878787881  3.67897727272728 9.30397727272725  3.76420454545453 9.21875  C 3.84943181818181 9.13352272727275  3.95833333333334 9.09090909090907  4.09090909090909 9.09090909090907  L 9.09090909090909 9.09090909090907  L 9.09090909090909 4.09090909090907  C 9.09090909090909 3.95833333333331  9.13352272727272 3.84943181818181  9.21875 3.76420454545456  C 9.30397727272728 3.67897727272725  9.41287878787878 3.63636363636363  9.54545454545456 3.63636363636363  L 10.4545454545454 3.63636363636363  C 10.5871212121212 3.63636363636363  10.6960227272727 3.67897727272725  10.78125 3.76420454545456  C 10.8664772727273 3.84943181818181  10.9090909090909 3.95833333333331  10.9090909090909 4.09090909090907  L 10.9090909090909 9.09090909090907  L 15.9090909090909 9.09090909090907  C 16.0416666666667 9.09090909090907  16.1505681818182 9.13352272727275  16.2357954545454 9.21875  Z M 17.5142045454546 17.5142045454546  C 17.9592803030303 17.0691287878788  18.1818181818182 16.5340909090909  18 15.9090909090909  L 18 4.09090909090907  C 18.1818181818182 3.46590909090907  17.9592803030303 2.93087121212119  17.5142045454546 2.48579545454544  C 17.0691287878788 2.04071969696969  16.5340909090909 1.81818181818181  15.9090909090909 2  L 4.09090909090909 2  C 3.46590909090909 1.81818181818181  2.93087121212122 2.04071969696969  2.48579545454547 2.48579545454544  C 2.04071969696969 2.93087121212119  1.81818181818181 3.46590909090907  2 4.09090909090907  L 2 15.9090909090909  C 1.81818181818181 16.5340909090909  2.04071969696969 17.0691287878788  2.48579545454547 17.5142045454546  C 2.93087121212122 17.9592803030303  3.46590909090909 18.1818181818182  4.09090909090909 18  L 15.9090909090909 18  C 16.5340909090909 18.1818181818182  17.0691287878788 17.9592803030303  17.5142045454546 17.5142045454546  Z M 18.7997159090909 1.20028409090907  C 19.5999053030303 2.0004734848485  20 2.96401515151513  20 4.09090909090907  L 20 15.9090909090909  C 20 17.0359848484849  19.5999053030303 17.9995265151515  18.7997159090909 18.7997159090909  C 17.9995265151515 19.5999053030303  17.0359848484848 20  15.9090909090909 20  L 4.09090909090909 20  C 2.96401515151516 20  2.0004734848485 19.5999053030303  1.20028409090909 18.7997159090909  C 0.400094696969688 17.9995265151515  0 17.0359848484849  0 15.9090909090909  L 0 4.09090909090907  C 0 2.96401515151513  0.400094696969688 2.0004734848485  1.20028409090909 1.20028409090907  C 2.0004734848485 0.400094696969688  2.96401515151516 0  4.09090909090909 0  L 15.9090909090909 0  C 17.0359848484848 0  17.9995265151515 0.400094696969688  18.7997159090909 1.20028409090907  Z " fill-rule="nonzero" fill="#000000" stroke="none" transform="matrix(1 0 0 1 118 206 )" />
  </g>
</svg>