<?xml version="1.0" encoding="utf-8"?>
<svg version="1.1" xmlns:xlink="http://www.w3.org/1999/xlink" width="19px" height="19px" xmlns="http://www.w3.org/2000/svg">
  <g transform="matrix(1 0 0 1 -31 -207 )">
    <path d="M 15.4240056818182 8.7578125  C 15.5049715909091 8.83877840909093  15.5454545454545 8.94223484848487  15.5454545454545 9.06818181818181  L 15.5454545454545 9.93181818181819  C 15.5454545454545 10.0577651515151  15.5049715909091 10.1612215909091  15.4240056818182 10.2421875  C 15.3430397727273 10.3231534090909  15.2395833333333 10.3636363636364  15.1136363636364 10  L 3.88636363636364 10  C 3.76041666666666 10.3636363636364  3.65696022727273 10.3231534090909  3.57599431818182 10.2421875  C 3.49502840909091 10.1612215909091  3.45454545454545 10.0577651515151  3.45454545454545 9.93181818181819  L 3.45454545454545 9.06818181818181  C 3.45454545454545 8.94223484848487  3.49502840909091 8.83877840909093  3.57599431818182 8.7578125  C 3.65696022727273 8.67684659090907  3.76041666666666 8.63636363636363  3.88636363636364 9  L 15.1136363636364 9  C 15.2395833333333 8.63636363636363  15.3430397727273 8.67684659090907  15.4240056818182 8.7578125  Z M 16.6384943181818 16.6384943181818  C 17.0613162878788 16.2156723484849  17.2727272727273 15.7073863636364  17 15.1136363636364  L 17 3.88636363636363  C 17.2727272727273 3.29261363636363  17.0613162878788 2.78432765151513  16.6384943181818 2.36150568181819  C 16.2156723484848 1.93868371212119  15.7073863636364 1.72727272727275  15.1136363636364 2  L 3.88636363636364 2  C 3.29261363636364 1.72727272727275  2.78432765151516 1.93868371212119  2.36150568181818 2.36150568181819  C 1.93868371212121 2.78432765151513  1.72727272727273 3.29261363636363  2 3.88636363636363  L 2 15.1136363636364  C 1.72727272727273 15.7073863636364  1.93868371212121 16.2156723484849  2.36150568181818 16.6384943181818  C 2.78432765151516 17.0613162878788  3.29261363636364 17.2727272727273  3.88636363636364 17  L 15.1136363636364 17  C 15.7073863636364 17.2727272727273  16.2156723484848 17.0613162878788  16.6384943181818 16.6384943181818  Z M 17.8597301136364 1.14026988636363  C 18.6199100378788 1.90044981060606  19 2.81581439393938  19 3.88636363636363  L 19 15.1136363636364  C 19 16.1841856060606  18.6199100378788 17.0995501893939  17.8597301136364 17.8597301136364  C 17.0995501893939 18.6199100378788  16.1841856060606 19  15.1136363636364 19  L 3.88636363636364 19  C 2.81581439393939 19  1.90044981060606 18.6199100378788  1.14026988636363 17.8597301136364  C 0.380089962121211 17.0995501893939  0 16.1841856060606  0 15.1136363636364  L 0 3.88636363636363  C 0 2.81581439393938  0.380089962121211 1.90044981060606  1.14026988636363 1.14026988636363  C 1.90044981060606 0.38008996212119  2.81581439393939 0  3.88636363636364 0  L 15.1136363636364 0  C 16.1841856060606 0  17.0995501893939 0.38008996212119  17.8597301136364 1.14026988636363  Z " fill-rule="nonzero" fill="#000000" stroke="none" transform="matrix(1 0 0 1 31 207 )" />
  </g>
</svg>